<svg xmlns="http://www.w3.org/2000/svg" width="640" height="240" viewBox="0 0 640 240">
  <rect width="640" height="240" fill="#fff"/>
  <text x="44" y="18" font-size="12" font-weight="600" fill="#111">Señal de presión por capacidad (insatisfecha / oferta)</text>
  <line x1="44" y1="34" x2="628" y2="34" stroke="#00000018" stroke-dasharray="3 3"/><text x="39" y="37" font-size="8" fill="#777" text-anchor="end">18</text><line x1="44" y1="79" x2="628" y2="79" stroke="#00000018" stroke-dasharray="3 3"/><text x="39" y="82" font-size="8" fill="#777" text-anchor="end">14</text><line x1="44" y1="124" x2="628" y2="124" stroke="#00000018" stroke-dasharray="3 3"/><text x="39" y="127" font-size="8" fill="#777" text-anchor="end">9</text><line x1="44" y1="169" x2="628" y2="169" stroke="#00000018" stroke-dasharray="3 3"/><text x="39" y="172" font-size="8" fill="#777" text-anchor="end">5</text><line x1="44" y1="214" x2="628" y2="214" stroke="#00000018" stroke-dasharray="3 3"/><text x="39" y="217" font-size="8" fill="#777" text-anchor="end">0</text><polyline points="44,211.13 58.97,205.31 73.95,196.71 88.92,193.94 103.9,187.03 118.87,187.52 133.85,185.74 148.82,184.36 163.79,175.56 178.77,168.85 193.74,165.68 208.72,173.49 223.69,173.29 238.67,160.55 253.64,170.03 268.62,173.09 283.59,166.47 298.56,163.02 313.54,160.55 328.51,154.91 343.49,142.76 358.46,143.06 373.44,129.52 388.41,128.24 403.38,132.88 418.36,110.95 433.33,104.13 448.31,108.08 463.28,99.38 478.26,94.05 493.23,92.27 508.21,84.47 523.18,77.75 538.15,76.66 553.13,69.74 568.1,66.68 583.08,58.87 598.05,60.85 613.03,48.3 628,42.57" fill="none" stroke="#e11d48" stroke-width="1.6"/><polyline points="44,214 58.97,209.16 73.95,209.16 88.92,207.58 103.9,206.69 118.87,201.16 133.85,198.88 148.82,190.98 163.79,190.29 178.77,190.48 193.74,181.99 208.72,180.9 223.69,180.6 238.67,175.56 253.64,175.96 268.62,178.92 283.59,177.24 298.56,178.43 313.54,177.15 328.51,165.09 343.49,161.44 358.46,144.74 373.44,130.41 388.41,140.39 403.38,133.67 418.36,127.15 433.33,117.37 448.31,122.31 463.28,118.26 478.26,110.25 493.23,105.41 508.21,105.51 523.18,108.08 538.15,109.36 553.13,106.99 568.1,110.15 583.08,102.45 598.05,100.67 613.03,90.69 628,93.36" fill="none" stroke="#f97316" stroke-width="1.6"/><polyline points="44,212.81 58.97,211.63 73.95,211.63 88.92,210.34 103.9,203.53 118.87,200.07 133.85,198.39 148.82,197.8 163.79,192.56 178.77,192.26 193.74,190.19 208.72,187.92 223.69,185.35 238.67,179.71 253.64,182.09 268.62,184.95 283.59,179.42 298.56,181.39 313.54,181.59 328.51,171.71 343.49,162.32 358.46,156.69 373.44,154.12 388.41,148.89 403.38,138.81 418.36,124.68 433.33,124.19 448.31,128.04 463.28,124.19 478.26,125.47 493.23,117.57 508.21,123.79 523.18,111.14 538.15,108.87 553.13,113.91 568.1,104.92 583.08,99.19 598.05,100.87 613.03,93.56 628,95.24" fill="none" stroke="#facc15" stroke-width="1.6"/><polyline points="44,214 58.97,207.18 73.95,209.85 88.92,212.72 103.9,208.57 118.87,207.78 133.85,201.95 148.82,200.76 163.79,201.16 178.77,197.1 193.74,195.82 208.72,193.45 223.69,189.59 238.67,188.41 253.64,190.19 268.62,194.93 283.59,185.54 298.56,184.75 313.54,179.62 328.51,168.85 343.49,166.47 358.46,154.32 373.44,150.86 388.41,156.49 403.38,148.39 418.36,149.18 433.33,144.64 448.31,148.39 463.28,149.08 478.26,147.11 493.23,135.35 508.21,131.79 523.18,128.24 538.15,124.48 553.13,114.8 568.1,108.87 583.08,108.77 598.05,106 613.03,101.26 628,98.89" fill="none" stroke="#22c55e" stroke-width="1.6"/><polyline points="44,214 58.97,214 73.95,214 88.92,212.52 103.9,209.85 118.87,211.23 133.85,208.17 148.82,208.66 163.79,203.63 178.77,203.23 193.74,194.34 208.72,193.55 223.69,191.37 238.67,185.25 253.64,187.42 268.62,182.97 283.59,178.92 298.56,180.41 313.54,179.52 328.51,178.92 343.49,172.3 358.46,171.51 373.44,169.73 388.41,155.7 403.38,155.21 418.36,150.76 433.33,155.11 448.31,149.28 463.28,148.1 478.26,140.78 493.23,130.71 508.21,132.48 523.18,123.39 538.15,125.47 553.13,121.62 568.1,117.76 583.08,119.94 598.05,112.53 613.03,110.15 628,108.67" fill="none" stroke="#0ea5e9" stroke-width="1.6"/><polyline points="44,211.33 58.97,212.72 73.95,211.33 88.92,208.66 103.9,208.07 118.87,206.59 133.85,203.33 148.82,201.16 163.79,199.48 178.77,197.8 193.74,194.54 208.72,193.35 223.69,192.56 238.67,191.18 253.64,189.89 268.62,187.22 283.59,187.62 298.56,183.57 313.54,180.5 328.51,178.73 343.49,178.33 358.46,176.55 373.44,170.03 388.41,166.67 403.38,163.61 418.36,158.67 433.33,154.82 448.31,154.82 463.28,155.7 478.26,148.1 493.23,147.7 508.21,141.87 523.18,135.65 538.15,134.26 553.13,133.08 568.1,131.3 583.08,132.29 598.05,131.99 613.03,130.9 628,127.94" fill="none" stroke="#6366f1" stroke-width="1.6"/><text x="44" y="232" font-size="9" fill="#333"><tspan fill="#e11d48">■</tspan> salud-y-cuidado</text><text x="162" y="232" font-size="9" fill="#333"><tspan fill="#f97316">■</tspan> reparacion</text><text x="280" y="232" font-size="9" fill="#333"><tspan fill="#facc15">■</tspan> mediacion</text><text x="398" y="232" font-size="9" fill="#333"><tspan fill="#22c55e">■</tspan> fabricacion</text><text x="516" y="232" font-size="9" fill="#333"><tspan fill="#0ea5e9">■</tspan> investigacion</text><text x="634" y="232" font-size="9" fill="#333"><tspan fill="#6366f1">■</tspan> asesoria-juridica</text>
</svg>