<svg xmlns="http://www.w3.org/2000/svg" width="560" height="240" viewBox="0 0 560 240">
  <rect width="560" height="240" fill="#fff"/>
  <text x="44" y="18" font-size="12" font-weight="600" fill="#111">Niveles de acceso (agentes)</text>
  <line x1="44" y1="34" x2="548" y2="34" stroke="#00000018" stroke-dasharray="3 3"/><text x="39" y="37" font-size="8" fill="#777" text-anchor="end">210</text><line x1="44" y1="79" x2="548" y2="79" stroke="#00000018" stroke-dasharray="3 3"/><text x="39" y="82" font-size="8" fill="#777" text-anchor="end">158</text><line x1="44" y1="124" x2="548" y2="124" stroke="#00000018" stroke-dasharray="3 3"/><text x="39" y="127" font-size="8" fill="#777" text-anchor="end">105</text><line x1="44" y1="169" x2="548" y2="169" stroke="#00000018" stroke-dasharray="3 3"/><text x="39" y="172" font-size="8" fill="#777" text-anchor="end">53</text><line x1="44" y1="214" x2="548" y2="214" stroke="#00000018" stroke-dasharray="3 3"/><text x="39" y="217" font-size="8" fill="#777" text-anchor="end">0</text><polyline points="44,214 56.92,214 69.85,214 82.77,214 95.69,214 108.62,214 121.54,214 134.46,214 147.38,214 160.31,214 173.23,214 186.15,214 199.08,214 212,214 224.92,214 237.85,214 250.77,214 263.69,214 276.62,214 289.54,214 302.46,214 315.38,214 328.31,214 341.23,214 354.15,214 367.08,214 380,214 392.92,214 405.85,214 418.77,214 431.69,214 444.62,214 457.54,214 470.46,214 483.38,214 496.31,214 509.23,214 522.15,214 535.08,214 548,214" fill="none" stroke="#22c55e" stroke-width="1.6"/><polyline points="44,42.57 56.92,42.57 69.85,43.43 82.77,47.71 95.69,52 108.62,53.71 121.54,54.57 134.46,64.86 147.38,64 160.31,72.57 173.23,70.86 186.15,71.71 199.08,76 212,77.71 224.92,80.29 237.85,93.14 250.77,96.57 263.69,101.71 276.62,105.14 289.54,108.57 302.46,120.57 315.38,120.57 328.31,112 341.23,124.86 354.15,121.43 367.08,128.29 380,127.43 392.92,133.43 405.85,148.86 418.77,140.29 431.69,148 444.62,166 457.54,160.86 470.46,161.71 483.38,170.29 496.31,179.71 509.23,178 522.15,178 535.08,185.71 548,188.29" fill="none" stroke="#3b82f6" stroke-width="1.6"/><polyline points="44,214 56.92,214 69.85,213.14 82.77,208.86 95.69,204.57 108.62,202.86 121.54,202 134.46,191.71 147.38,192.57 160.31,184 173.23,185.71 186.15,184.86 199.08,180.57 212,178.86 224.92,176.29 237.85,163.43 250.77,160 263.69,154.86 276.62,151.43 289.54,148 302.46,136 315.38,136 328.31,144.57 341.23,131.71 354.15,135.14 367.08,128.29 380,129.14 392.92,123.14 405.85,107.71 418.77,116.29 431.69,108.57 444.62,90.57 457.54,95.71 470.46,94.86 483.38,86.29 496.31,76.86 509.23,78.57 522.15,78.57 535.08,70.86 548,68.29" fill="none" stroke="#8b5cf6" stroke-width="1.6"/><text x="44" y="232" font-size="9" fill="#333"><tspan fill="#22c55e">■</tspan> básico</text><text x="162" y="232" font-size="9" fill="#333"><tspan fill="#3b82f6">■</tspan> medio</text><text x="280" y="232" font-size="9" fill="#333"><tspan fill="#8b5cf6">■</tspan> avanzado</text>
</svg>