<svg xmlns="http://www.w3.org/2000/svg" width="640" height="180" viewBox="0 0 640 180"><rect width="640" height="180" fill="#fff"/><line x1="40" y1="126.5" x2="630" y2="126.5" stroke="#e5e5e5" stroke-width="0.5"/><line x1="40" y1="93" x2="630" y2="93" stroke="#e5e5e5" stroke-width="0.5"/><line x1="40" y1="59.5" x2="630" y2="59.5" stroke="#e5e5e5" stroke-width="0.5"/><text x="40" y="16" font-size="12" font-weight="600">L-E15-casi-vacio — [C] Sistema casi vacio (5 participantes)</text><polyline points="40,160 55.13,35.93 70.26,35.93 85.38,35.93 100.51,35.93 115.64,35.93 130.77,35.93 145.9,35.93 161.03,35.93 176.15,35.93 191.28,35.93 206.41,35.93 221.54,35.93 236.67,35.93 251.79,35.93 266.92,35.93 282.05,35.93 297.18,35.93 312.31,35.93 327.44,35.93 342.56,35.93 357.69,35.93 372.82,35.93 387.95,35.93 403.08,35.93 418.21,35.93 433.33,35.93 448.46,35.93 463.59,60.74 478.72,60.74 493.85,60.74 508.97,60.74 524.1,60.74 539.23,60.74 554.36,60.74 569.49,60.74 584.62,35.93 599.74,35.93 614.87,35.93 630,35.93" fill="none" stroke="#1b6e38" stroke-width="1.5"/><polyline points="40,160 55.13,135.19 70.26,135.19 85.38,135.19 100.51,135.19 115.64,135.19 130.77,135.19 145.9,135.19 161.03,135.19 176.15,135.19 191.28,135.19 206.41,135.19 221.54,135.19 236.67,135.19 251.79,135.19 266.92,135.19 282.05,135.19 297.18,135.19 312.31,135.19 327.44,135.19 342.56,135.19 357.69,135.19 372.82,135.19 387.95,134.64 403.08,134.64 418.21,134.64 433.33,134.64 448.46,134.64 463.59,134.64 478.72,134.64 493.85,134.64 508.97,134.64 524.1,134.64 539.23,134.64 554.36,134.64 569.49,134.64 584.62,134.64 599.74,134.64 614.87,134.64 630,134.64" fill="none" stroke="#b33" stroke-width="1.5"/><polyline points="40,160 55.13,160 70.26,160 85.38,160 100.51,160 115.64,160 130.77,160 145.9,160 161.03,160 176.15,160 191.28,160 206.41,160 221.54,160 236.67,160 251.79,160 266.92,160 282.05,160 297.18,160 312.31,160 327.44,160 342.56,160 357.69,160 372.82,160 387.95,160 403.08,160 418.21,160 433.33,160 448.46,160 463.59,160 478.72,160 493.85,160 508.97,160 524.1,160 539.23,160 554.36,160 569.49,160 584.62,160 599.74,160 614.87,160 630,160" fill="none" stroke="#777" stroke-width="1.5"/><text x="40" y="176" font-size="8" fill="#444"><tspan fill="#1b6e38">▪</tspan> %sat</text><text x="150" y="176" font-size="8" fill="#444"><tspan fill="#b33">▪</tspan> presion</text><text x="260" y="176" font-size="8" fill="#444"><tspan fill="#777">▪</tspan> basico%</text></svg>